name C:\Users\u0101727\Documents\MyRepositories\upper-imu-dc\Results\main_tracking\Case_58\kinematics.mot
datacolumns 10
datarows 28
range 7.88000000 8.15000000
endheader 
time	clav_prot	clav_elev	scapula_abduction	scapula_elevation	scapula_upward_rot	scapula_winging	plane_elv	shoulder_elv	axial_rot	
          7.88000000	        -40.33837707	          6.89058684	        -18.30204949	         -3.72008913	         50.70183782	        -10.17121263	         29.50371923	         80.69724012	         -5.28937788	
          7.89000000	        -40.25954183	          6.79097092	        -18.66827036	         -3.73550995	         50.04082142	        -10.03345674	         29.63959423	         80.46249996	         -5.21345666	
          7.90000000	        -40.18214168	          6.68938232	        -19.03617630	         -3.74983197	         49.37874510	         -9.89243792	         29.77319813	         80.22190913	         -5.14219468	
          7.91000000	        -40.10662425	          6.58613458	        -19.40545498	         -3.76297546	         48.71694298	         -9.74863725	         29.90318028	         79.97526042	         -5.07673366	
          7.92000000	        -40.03343234	          6.48159108	        -19.77575145	         -3.77485244	         48.05682125	         -9.60258295	         30.02818121	         79.72238637	         -5.01819781	
          7.93000000	        -39.96299494	          6.37616439	        -20.14666573	         -3.78536640	         47.39984575	         -9.45484549	         30.14685293	         79.46316158	         -4.96767050	
          7.94000000	        -39.89571893	          6.27031337	        -20.51775382	         -3.79441276	         46.74752530	         -9.30603129	         30.25788202	         79.19750278	         -4.92616483	
          7.95000000	        -39.83198173	          6.16453767	        -20.88853229	         -3.80188031	         46.10139104	         -9.15677491	         30.36001371	         78.92536593	         -4.89458991	
          7.96000000	        -39.77212481	          6.05936933	        -21.25848590	         -3.80765382	         45.46297222	         -9.00772949	         30.45207531	         78.64674030	         -4.87371608	
          7.97000000	        -39.71644839	          5.95536124	        -21.62707708	         -3.81161793	         44.83376981	         -8.85955561	         30.53299803	         78.36163945	         -4.86414221	
          7.98000000	        -39.66520702	          5.85307254	        -21.99375597	         -3.81366257	         44.21522959	         -8.71290879	         30.60183592	         78.07009007	         -4.86626841	
          7.99000000	        -39.61860620	          5.75305157	        -22.35796959	         -3.81368973	         43.60871632	         -8.56842597	         30.65778090	         77.77211917	         -4.88027740	
          8.00000000	        -39.57679980	          5.65581739	        -22.71916965	         -3.81162096	         43.01549011	         -8.42671164	         30.70017209	         77.46774071	         -4.90612665	
          8.01000000	        -39.53988833	          5.56184192	        -23.07681807	         -3.80740467	         42.43668714	         -8.28832480	         30.72849803	         77.15694380	         -4.94355258	
          8.02000000	        -39.50791760	          5.47153540	        -23.43038946	         -3.80102152	         41.87330578	         -8.15376753	         30.74239267	         76.83968458	         -4.99208519	
          8.03000000	        -39.48087758	          5.38523702	        -23.77937069	         -3.79248698	         41.32619897	         -8.02347635	         30.74162634	         76.51588334	         -5.05107071	
          8.04000000	        -39.45870200	          5.30321113	        -24.12325896	         -3.78185071	         40.79607240	         -7.89781670	         30.72609338	         76.18542706	         -5.11969873	
          8.05000000	        -39.44126929	          5.22564845	        -24.46155993	         -3.76919351	         40.28348724	         -7.77708067	         30.69579869	         75.84817604	         -5.19703096	
          8.06000000	        -39.42840529	          5.15267043	        -24.79378728	         -3.75462266	         39.78886631	         -7.66148764	         30.65084488	         75.50397321	         -5.28202951	
          8.07000000	        -39.41988779	          5.08433602	        -25.11946397	         -3.73826655	         39.31250246	         -7.55118719	         30.59142194	         75.15265466	         -5.37358352	
          8.08000000	        -39.41545241	          5.02064922	        -25.43812520	         -3.72026919	         38.85456835	         -7.44626384	         30.51779937	         74.79405997	         -5.47053391	
          8.09000000	        -39.41479960	          4.96156720	        -25.74932283	         -3.70078489	         38.41512646	         -7.34674280	         30.43032064	         74.42804155	         -5.57169626	
          8.10000000	        -39.41760181	          4.90700820	        -26.05263087	         -3.67997327	         37.99413859	         -7.25259611	         30.32939860	         74.05447207	         -5.67588213	
          8.11000000	        -39.42351086	          4.85685886	        -26.34765149	         -3.65799488	         37.59147451	         -7.16374894	         30.21551031	         73.67324996	         -5.78191938	
          8.12000000	        -39.43216471	          4.81098089	        -26.63402089	         -3.63500730	         37.20691966	         -7.08008549	         30.08919060	         73.28430310	         -5.88867178	
          8.13000000	        -39.44319354	          4.76921689	        -26.91141416	         -3.61116202	         36.84018237	         -7.00145450	         29.95102404	         72.88759095	         -5.99505788	
          8.14000000	        -39.45622462	          4.73139490	        -27.17954843	         -3.58660206	         36.49090053	         -6.92767394	         29.80163606	         72.48310560	         -6.10006865	
          8.15000000	        -39.47088581	          4.69733184	        -27.43818395	         -3.56146056	         36.15864788	         -6.85853483	         29.64168365	         72.07087160	         -6.20278275	
